HIERARCHY
ROOT pelvis
{
  OFFSET 0 100 0
  CHANNELS 6 Xposition Yposition Zposition Zrotation Xrotation Yrotation
  JOINT pelvis_right_femur
  {
    OFFSET -10.78128 -3.44521 -0.5502486
    CHANNELS 3 Zrotation Xrotation Yrotation
    JOINT right_femur_tibia
    {
      OFFSET -0.8047443 -44.0398 -0.1307829
      CHANNELS 3 Zrotation Xrotation Yrotation
      JOINT right_tibia_foot
      {
        OFFSET 3.006224 -47.83518 -5
        CHANNELS 3 Zrotation Xrotation Yrotation
        End Site
        {
          OFFSET 0 -5 15
        }
      }
    }
  }
  JOINT pelvis_left_femur
  {
    OFFSET 10.78128 -3.44521 -0.5502486
    CHANNELS 3 Zrotation Xrotation Yrotation
    JOINT left_femur_tibia
    {
      OFFSET 0.8047443 -44.0398 -0.1307829
      CHANNELS 3 Zrotation Xrotation Yrotation
      JOINT left_tibia_foot
      {
        OFFSET -4.370144 -48.10324 -4.275266
        CHANNELS 3 Zrotation Xrotation Yrotation
        End Site
        {
          OFFSET 0 -5 15
        }
      }
    }
  }
  JOINT pelvis_spine1
  {
    OFFSET 0 6.468898 -3.129235
    CHANNELS 3 Zrotation Xrotation Yrotation
    JOINT spine1
    {
      OFFSET 0 23.15396 4.99043
      CHANNELS 3 Zrotation Xrotation Yrotation
      JOINT spine2
      {
        OFFSET 0 20.79997 -5.064912
        CHANNELS 3 Zrotation Xrotation Yrotation
        JOINT neck
        {
          OFFSET 0 14.38658 9.616178
          CHANNELS 3 Zrotation Xrotation Yrotation
          End Site
          {
            OFFSET 0 20 0
          }
        }
      }
      JOINT right_manubrium
      {
        OFFSET -5.722621 16.35077 3.967754
        CHANNELS 3 Zrotation Xrotation Yrotation
        JOINT right_clavicle
        {
          OFFSET -13.16364 1.694482 -4.693211
          CHANNELS 3 Zrotation Xrotation Yrotation
          JOINT right_humerus
          {
            OFFSET -28.5034 -0.3100689 -2.792744
            CHANNELS 3 Zrotation Xrotation Yrotation
            JOINT right_radius
            {
              OFFSET -25.15693 0.02248979 -1.271978
              CHANNELS 3 Zrotation Xrotation Yrotation
              End Site
              {
                OFFSET -15 0 0
              }
            }
          }
        }
      }
      JOINT left_manubrium
      {
        OFFSET 5.722621 16.35077 3.967754
        CHANNELS 3 Zrotation Xrotation Yrotation
        JOINT left_clavicle
        {
          OFFSET 13.16364 1.694482 -4.693211
          CHANNELS 3 Zrotation Xrotation Yrotation
          JOINT left_humerus
          {
            OFFSET 29.39168 -1.063119 -2.237045
            CHANNELS 3 Zrotation Xrotation Yrotation
            JOINT left_radius
            {
              OFFSET 24.59957 -0.9528479 0.9047498
              CHANNELS 3 Zrotation Xrotation Yrotation
              End Site
              {
                OFFSET 15 -0 -0
              }
            }
          }
        }
      }
    }
  }
}
MOTION
Frames: 13
Frame Time: 0.0416666666667
-251.9243 103.5084 2945.963 -0.3734034 -7.189898 -22.14473 -1.528061 14.27149 2.320901 -0 45.37907 -0 -4.727516 6.192503 -1.581766 -5.198895 -13.93963 -9.592092 -0 20.03804 -0 -2.021354 -10.02258 20.42489 -2.315328 -1.032581 9.326633 -0.9381955 10.1899 -3.507405 1.118493 21.91614 4.03307 0.7268821 -21.47072 6.501755 -2.36091 -26.18949 9.394016 85.68247 22.52841 -7.83757 -0 0 27.45529 -19.2582 3.313674 12.15214 3.555603 -14.16524 -2.338167 -96.38683 23.66025 31.66161 0 0 -7.371911 -0.2646847 0.2248129 14.54937
-253.4435 104.7636 2952.21 -0.8552464 -7.796063 -21.25523 -0.9382353 8.42829 2.14026 -0 51.22909 -0 -4.996013 8.475139 -2.468164 -5.440411 -8.97155 -9.591602 -0 19.68064 -0 -1.136564 -11.05027 20.07322 -2.251386 -0.9998679 8.855583 -0.727768 10.25041 -4.043111 1.172524 21.7798 4.147707 0.9005928 -21.43362 6.538827 -2.100644 -25.44356 9.407644 86.42301 22.68248 -9.446602 -0 0 25.86125 -18.70773 3.441525 11.55696 3.873042 -15.06412 -2.373507 -95.15295 23.83646 29.51565 0 0 -9.085742 0.2474744 0.495796 14.10382
-254.8424 105.9557 2957.984 -1.440339 -8.100833 -20.33335 -0.1282469 1.831332 1.742151 -0 52.97592 -0 -5.292143 8.464465 -3.325519 -5.311044 -4.158843 -9.306868 -0 18.31814 -0 -0.3368882 -12.16372 19.61281 -2.173084 -0.9848028 8.26662 -0.4696869 10.2551 -4.691195 1.223959 21.58257 4.334952 1.119821 -21.50456 6.633826 -1.859772 -24.57957 9.374917 87.34053 22.87458 -11.38145 -0 0 24.00312 -18.12325 3.635113 10.86258 4.296928 -16.14014 -2.358126 -93.69057 23.98639 26.94764 0 0 -11.16495 0.884903 0.8251515 13.49544
-256.1513 106.8232 2963.388 -1.873914 -8.126693 -19.48548 0.5238103 -4.707649 1.167777 -0 50.45398 -0 -5.519187 7.17285 -4.017972 -5.079401 0.1625288 -8.902173 -0 16.50137 -0 0.2787488 -13.46404 18.96896 -2.080307 -0.9908544 7.591781 -0.1819886 10.1697 -5.40605 1.268641 21.319 4.608347 1.384247 -21.71536 6.801864 -1.67317 -23.65295 9.286376 88.36088 23.07199 -13.49741 -0 0 22.02655 -17.60072 3.913376 10.13031 4.82355 -17.32175 -2.261117 -92.10298 24.06934 24.11575 0 0 -13.48249 1.601151 1.196256 12.74554
-257.4274 107.1987 2968.586 -2.001159 -7.874272 -18.7548 0.8421982 -10.67915 0.432905 -0 44.45737 -0 -5.557219 5.544484 -4.503738 -4.919449 3.878634 -8.446907 -0 14.72027 -0 0.6172113 -14.97833 18.08566 -1.974023 -1.017193 6.86938 0.1152068 9.977325 -6.14079 1.305563 20.9927 4.969061 1.691674 -22.06905 7.045675 -1.556757 -22.71172 9.145786 89.40052 23.24677 -15.64838 -0 0 20.06353 -17.21593 4.287314 9.416601 5.43979 -18.5394 -2.064646 -90.4928 24.05884 21.18089 0 0 -15.90573 2.345242 1.596497 11.8927
-258.7331 107.0219 2973.75 -1.788444 -7.34565 -18.14274 0.8224279 -15.83842 -0.4258579 -0 36.22426 -0 -5.339818 4.175052 -4.80762 -4.910104 7.035645 -7.972719 -0 13.34865 -0 0.6031343 -16.63967 16.97036 -1.856917 -1.059365 6.140196 0.4023397 9.682214 -6.851912 1.335978 20.61784 5.403201 2.034821 -22.54023 7.354322 -1.50977 -21.79591 8.967284 90.38113 23.38078 -17.70292 -0 0 18.22121 -17.01193 4.753293 8.767729 6.120976 -19.72947 -1.769545 -88.95246 23.94792 18.29629 0 0 -18.30565 3.06731 2.014559 10.98952
-260.1245 106.3305 2979.026 -1.295666 -6.569051 -17.62945 0.5775537 -20.089 -1.315809 -0 27.08013 -0 -4.884259 3.331059 -4.995105 -5.055973 9.752232 -7.505012 -0 12.67908 -0 0.2027113 -18.29213 15.69637 -1.733959 -1.110619 5.444375 0.6625785 9.309001 -7.502254 1.362012 20.21873 5.882142 2.398727 -23.0815 7.70454 -1.520167 -20.94005 8.770709 91.24179 23.4669 -19.55468 -0 0 16.57866 -16.99381 5.288252 8.216619 6.830036 -20.83557 -1.397134 -87.55779 23.75033 15.60119 0 0 -20.56288 3.723752 2.435884 10.09657
-261.653 105.2456 2984.528 -0.6491225 -5.612073 -17.18775 0.305158 -23.38216 -2.077682 -0 18.30105 -0 -4.288601 3.0455 -5.1523 -5.304417 12.15304 -7.067692 -0 12.98132 -0 -0.5605219 -19.6978 14.389 -1.612659 -1.16347 4.819062 0.8831994 8.898491 -8.062595 1.385374 19.82718 6.365663 2.759919 -23.63319 8.064097 -1.57042 -20.17648 8.576876 91.9461 23.50777 -21.12737 -0 0 15.18886 -17.12994 5.849018 7.780773 7.51892 -21.80902 -0.9868199 -86.36497 23.49808 13.21743 0 0 -22.57155 4.281248 2.839489 9.275538
-263.3694 103.9594 2990.333 -0.02757134 -4.588413 -16.79475 0.2651591 -25.65396 -2.497206 -0 11.08629 -0 -3.714437 3.186593 -5.362694 -5.554103 14.31302 -6.679332 -0 14.55023 -0 -1.603421 -20.54197 13.20973 -1.502735 -1.211139 4.296918 1.055926 8.500838 -8.511864 1.406523 19.47867 6.807231 3.087989 -24.13412 8.396433 -1.642411 -19.53785 8.403944 92.48278 23.5131 -22.3735 -0 0 14.08465 -17.35918 6.376558 7.461817 8.132752 -22.60912 -0.5895191 -85.41181 23.23586 11.24937 0 0 -24.24029 4.718224 3.19855 8.583576
-265.3218 102.7191 2996.476 0.3547722 -3.658135 -16.44643 0.733262 -26.79487 -2.349054 -0 6.494035 -0 -3.353735 3.494501 -5.676099 -5.664343 16.18284 -6.354085 -0 17.71926 -0 -2.794751 -20.45687 12.33292 -1.415125 -1.248598 3.905876 1.176064 8.167407 -8.835648 1.424439 19.20827 7.160149 3.349278 -24.53047 8.66558 -1.721276 -19.05825 8.265476 92.8598 23.49632 -23.26658 -0 0 13.28743 -17.60341 6.803717 7.247941 8.615839 -23.20295 -0.2583268 -84.72399 23.01372 9.788267 0 0 -25.48932 5.022622 3.485162 8.070992
-267.5347 101.7938 3002.944 0.3005925 -3.011481 -16.17834 1.884224 -26.6493 -1.497941 -0 5.202231 -0 -3.367284 3.619832 -6.073982 -5.488936 17.48774 -6.112921 -0 22.80172 -0 -3.980485 -19.1146 11.90319 -1.360581 -1.273132 3.670057 1.240644 7.942726 -9.02318 1.436915 19.04752 7.383261 3.511553 -24.78163 8.840553 -1.798668 -18.7734 8.169965 93.09446 23.47112 -23.78875 -0 0 12.81688 -17.78336 7.063899 7.11974 8.917974 -23.56397 -0.0388073 -84.32462 22.87946 8.920199 0 0 -26.24512 5.186566 3.677391 7.782257
-269.9731 101.4137 3009.652 -0.2588863 -2.822509 -16.08131 3.601887 -25.05643 -0.0529944 -0 7.054555 -0 -3.798151 3.196455 -6.452969 -4.962513 17.6733 -5.991955 -0 29.90931 -0 -5.014696 -16.44531 11.97657 -1.348054 -1.284627 3.610431 1.246398 7.857128 -9.064174 1.441114 19.02183 7.446147 3.548861 -24.86415 8.899537 -1.875813 -18.71949 8.120798 93.20352 23.44887 -23.91896 -0 0 12.69882 -17.83587 7.099988 7.058523 9.000552 -23.67034 0.03946602 -84.24356 22.87141 8.73246 0 0 -26.43713 5.200773 3.765465 7.757135
-272.5213 101.6926 3016.43 -1.143472 -3.176431 -16.27629 5.370961 -21.95232 1.552082 -0 10.70035 -0 -4.512696 1.967574 -6.664858 -4.210608 16.07491 -6.012556 -0 38.6387 -0 -5.777634 -12.9089 12.48627 -1.3828 -1.285954 3.742471 1.18912 7.919801 -8.948234 1.434106 19.14603 7.335164 3.446771 -24.77734 8.835054 -1.965663 -18.92961 8.115456 93.19661 23.43753 -23.62937 -0 0 12.96715 -17.73076 6.876107 7.055008 8.844032 -23.50524 -0.02992596 -84.52042 23.00949 9.309154 0 0 -26.00417 5.053392 3.754269 8.025732
